<svg width="136" height="136" viewBox="0 0 136 136" fill="none" xmlns="http://www.w3.org/2000/svg">
<path opacity="0.6" d="M109.336 18.7139L29.7403 11.7502C20.7613 10.9646 12.8456 17.6067 12.06 26.5857L5.09629 106.182C4.31073 115.161 10.9528 123.076 19.9318 123.862L99.5278 130.826C108.507 131.611 116.423 124.969 117.208 115.99L124.172 36.3942C124.957 27.4152 118.315 19.4995 109.336 18.7139Z" fill="#848AFD"/>
<path d="M107.984 11.628H28.084C19.0707 11.628 11.764 18.9347 11.764 27.948V107.848C11.764 116.861 19.0707 124.168 28.084 124.168H107.984C116.997 124.168 124.304 116.861 124.304 107.848V27.948C124.304 18.9347 116.997 11.628 107.984 11.628Z" fill="#F0EEFD"/>
<path d="M105.604 82.28L97.784 55.556H69.428V96.424H105.468L105.604 82.28Z" fill="#9C97FE"/>
<path d="M30.396 82.28L38.216 55.556H66.572V96.424H30.532L30.396 82.28Z" fill="#9C97FE"/>
<path d="M97.036 61.268H38.964L32.504 85.068H103.496L97.036 61.268Z" fill="#5A54D6"/>
<path d="M95.0955 41.3521L54.6187 37.4546C50.8805 37.0946 47.5582 39.8333 47.1983 43.5715L42.2645 94.8105C41.9046 98.5488 44.6432 101.871 48.3815 102.231L88.8583 106.128C92.5965 106.488 95.9188 103.75 96.2787 100.012L101.212 48.7725C101.572 45.0343 98.8338 41.712 95.0955 41.3521Z" fill="#E9E7FD"/>
<path d="M86.768 29.036H46.104C42.3485 29.036 39.304 32.0805 39.304 35.836V87.312C39.304 91.0675 42.3485 94.112 46.104 94.112H86.768C90.5235 94.112 93.568 91.0675 93.568 87.312V35.836C93.568 32.0805 90.5235 29.036 86.768 29.036Z" fill="#FEFEFE"/>
<path d="M84.9321 45.628H59.9081C58.6841 45.628 57.7321 46.58 57.7321 47.804C57.7321 49.028 58.6841 49.98 59.9081 49.98H84.9321C86.1561 49.98 87.1081 49.028 87.1081 47.804C87.1081 46.58 86.1561 45.628 84.9321 45.628Z" fill="#C5C5FE"/>
<path d="M52.02 45.016L48.96 48.076L47.6 46.716C47.192 46.308 46.512 46.308 46.036 46.716C45.56 47.124 45.628 47.804 46.036 48.28L48.144 50.388C48.348 50.592 48.62 50.728 48.892 50.728C49.164 50.728 49.436 50.592 49.64 50.388L53.448 46.58C53.856 46.172 53.856 45.492 53.448 45.016C53.04 44.608 52.36 44.608 51.884 45.016H52.02Z" fill="#44B691"/>
<path d="M84.9321 59.5H59.9081C58.6841 59.5 57.7321 60.452 57.7321 61.676C57.7321 62.9 58.6841 63.852 59.9081 63.852H84.9321C86.1561 63.852 87.1081 62.9 87.1081 61.676C87.1081 60.452 86.1561 59.5 84.9321 59.5Z" fill="#C5C5FE"/>
<path d="M52.02 58.888L48.96 61.948L47.6 60.588C47.192 60.18 46.512 60.18 46.036 60.588C45.56 60.996 45.628 61.676 46.036 62.152L48.144 64.26C48.348 64.464 48.62 64.6 48.892 64.6C49.164 64.6 49.436 64.464 49.64 64.26L53.448 60.452C53.856 60.044 53.856 59.364 53.448 58.888C53.04 58.48 52.36 58.48 51.884 58.888H52.02Z" fill="#44B691"/>
<path d="M84.9321 73.372H59.9081C58.6841 73.372 57.7321 74.324 57.7321 75.548C57.7321 76.772 58.6841 77.724 59.9081 77.724H84.9321C86.1561 77.724 87.1081 76.772 87.1081 75.548C87.1081 74.324 86.1561 73.372 84.9321 73.372Z" fill="#C5C5FE"/>
<path d="M52.02 72.76L48.96 75.82L47.6 74.46C47.192 74.052 46.512 74.052 46.036 74.46C45.56 74.868 45.628 75.548 46.036 76.024L48.144 78.132C48.348 78.336 48.62 78.472 48.892 78.472C49.164 78.472 49.436 78.336 49.64 78.132L53.448 74.324C53.856 73.916 53.856 73.236 53.448 72.76C53.04 72.352 52.36 72.352 51.884 72.76H52.02Z" fill="#44B691"/>
<path d="M78.88 84.864L78.132 93.092C77.928 94.044 77.112 94.724 76.16 94.724H59.568C58.616 94.724 57.8 94.044 57.596 93.092L56.848 84.864C56.576 83.368 55.216 82.28 53.72 82.28H30.328V96.9H105.536V82.28H81.94C80.444 82.28 79.152 83.368 78.812 84.864H78.88Z" fill="#9C97FE"/>
<path d="M78.88 87.516L78.132 91.324C77.928 92.276 77.112 92.956 76.16 92.956H59.568C58.616 92.956 57.8 92.276 57.596 91.324L56.848 87.516C56.576 86.02 55.216 84.932 53.72 84.932H30.328V103.836C30.328 105.536 31.688 106.964 33.456 106.964H102.476C104.176 106.964 105.604 105.604 105.604 103.836V84.932H82.008C80.512 84.932 79.22 86.02 78.88 87.516Z" fill="#8781FC"/>
<path d="M93.568 41.208V82.212H95.54V41.412C94.928 41.276 93.568 41.208 93.568 41.208Z" fill="#D2CFFE"/>
</svg>
