<svg width="80" height="81" viewBox="0 0 80 81" fill="none" xmlns="http://www.w3.org/2000/svg">
<path d="M40 80C62.0914 80 80 62.0914 80 40C80 17.9086 62.0914 0 40 0C17.9086 0 0 17.9086 0 40C0 62.0914 17.9086 80 40 80Z" fill="#FACCBB"/>
<mask id="mask0_11926_13230" style="mask-type:luminance" maskUnits="userSpaceOnUse" x="0" y="0" width="80" height="80">
<path d="M40 80C62.0914 80 80 62.0914 80 40C80 17.9086 62.0914 0 40 0C17.9086 0 0 17.9086 0 40C0 62.0914 17.9086 80 40 80Z" fill="white"/>
</mask>
<g mask="url(#mask0_11926_13230)">
<path d="M64.56 52.24C70.93 52.24 76.1 57.41 76.1 63.78V80.05H53.03V63.78C53.03 57.41 58.2 52.24 64.57 52.24H64.56Z" fill="#3D5D63"/>
<path d="M64.96 51.65C69.3452 51.65 72.9 48.0951 72.9 43.71C72.9 39.3249 69.3452 35.77 64.96 35.77C60.5749 35.77 57.02 39.3249 57.02 43.71C57.02 48.0951 60.5749 51.65 64.96 51.65Z" fill="#4F4C49"/>
<path d="M15.84 52.24C22.21 52.24 27.38 57.41 27.38 63.78V80.05H4.30005V63.78C4.30005 57.41 9.47005 52.24 15.84 52.24Z" fill="#64AB94"/>
<path d="M42.48 48C42.42 49.33 41.33 50.39 39.99 50.39C38.65 50.39 37.56 49.33 37.5 48C30.05 48 24 54.04 24 61.5V80H56V61.5C56 54.05 49.96 48 42.5 48H42.47H42.48Z" fill="#FBF5EF"/>
<path d="M39.9299 46.54C44.7845 46.54 48.7199 42.6046 48.7199 37.75C48.7199 32.8954 44.7845 28.96 39.9299 28.96C35.0753 28.96 31.1399 32.8954 31.1399 37.75C31.1399 42.6046 35.0753 46.54 39.9299 46.54Z" fill="#4E4B48"/>
<path d="M39.6753 31.3148C42.1434 28.8466 42.403 25.1046 40.2551 22.9568C38.1073 20.8089 34.3653 21.0685 31.8971 23.5366C29.429 26.0047 29.1694 29.7467 31.3173 31.8946C33.4652 34.0425 37.2072 33.7829 39.6753 31.3148Z" fill="#2F3637"/>
<path d="M48.5201 38.47C48.6401 37.9 48.7001 37.3 48.7001 36.7C48.7001 31.84 44.7601 27.91 39.9101 27.91C35.0601 27.91 31.1201 31.85 31.1201 36.7C31.1201 37.39 31.2001 38.06 31.3501 38.71C31.3501 38.71 32.2201 38.56 32.9401 37.13C35.4501 37.2 38.6901 36.61 39.9101 33.31C41.4201 35.76 43.3601 37.2 47.1001 37.27C47.6701 37.99 48.5301 38.47 48.5301 38.47H48.5201Z" fill="#2F3637"/>
<path d="M41.7899 28.11C41.1799 27.98 40.5499 27.91 39.8999 27.91C37.4699 27.91 35.2699 28.89 33.6799 30.49C33.6799 30.49 35.4799 26.38 41.7099 26.98L41.7899 28.12V28.11Z" fill="#FCCA5C"/>
<path d="M37.46 44.67H42.45V48.16C42.45 49.54 41.33 50.65 39.96 50.65C38.58 50.65 37.47 49.53 37.47 48.16V44.67H37.46Z" fill="#4E4B48"/>
<path d="M16.24 51.65C20.6252 51.65 24.18 48.0951 24.18 43.71C24.18 39.3249 20.6252 35.77 16.24 35.77C11.8549 35.77 8.30005 39.3249 8.30005 43.71C8.30005 48.0951 11.8549 51.65 16.24 51.65Z" fill="#FCE3C0"/>
</g>
</svg>
